<svg xmlns="http://www.w3.org/2000/svg" viewBox="0 0 1200 630" width="1200" height="630">
  <defs>
    <linearGradient id="bg" x1="0" y1="0" x2="0" y2="1">
      <stop offset="0%" stop-color="#0a1024"/>
      <stop offset="60%" stop-color="#11183a"/>
      <stop offset="100%" stop-color="#1f2d63"/>
    </linearGradient>
  </defs>
  <rect width="1200" height="630" fill="url(#bg)"/>
  <path d="M0,159.2 L10,160.9 L20,162.5 L30,164.0 L40,165.4 L50,166.7 L60,168.0 L70,169.1 L80,170.0 L90,170.9 L100,171.6 L110,172.2 L120,172.6 L130,172.9 L140,173.1 L150,173.1 L160,172.9 L170,172.6 L180,172.2 L190,171.6 L200,170.9 L210,170.0 L220,169.1 L230,168.0 L240,166.7 L250,165.4 L260,164.0 L270,162.5 L280,160.9 L290,159.2 L300,157.5 L310,155.7 L320,153.9 L330,152.1 L340,150.2 L350,148.4 L360,146.6 L370,144.7 L380,143.0 L390,141.2 L400,139.6 L410,137.9 L420,136.4 L430,135.0 L440,133.6 L450,132.4 L460,131.2 L470,130.2 L480,129.3 L490,128.6 L500,127.9 L510,127.5 L520,127.1 L530,126.9 L540,126.9 L550,127.0 L560,127.3 L570,127.7 L580,128.2 L590,128.9 L600,129.7 L610,130.7 L620,131.7 L630,132.9 L640,134.2 L650,135.6 L660,137.1 L670,138.7 L680,140.3 L690,142.0 L700,143.8 L710,145.6 L720,147.4 L730,149.2 L740,151.1 L750,152.9 L760,154.8 L770,156.5 L780,158.3 L790,160.0 L800,161.6 L810,163.2 L820,164.7 L830,166.0 L840,167.3 L850,168.5 L860,169.5 L870,170.4 L880,171.2 L890,171.9 L900,172.4 L910,172.8 L920,173.0 L930,173.1 L940,173.0 L950,172.8 L960,172.5 L970,171.9 L980,171.3 L990,170.5 L1000,169.6 L1010,168.6 L1020,167.4 L1030,166.2 L1040,164.8 L1050,163.3 L1060,161.8 L1070,160.1 L1080,158.4 L1090,156.7 L1100,154.9 L1110,153.1 L1120,151.3 L1130,149.4 L1140,147.6 L1150,145.7 L1160,143.9 L1170,142.2 L1180,140.5 L1190,138.8 L1200,137.2" fill="none" stroke="#1f2d63" stroke-width="1.5" opacity="0.06"/>
  <path d="M0,288.5 L10,288.2 L20,287.7 L30,287.1 L40,286.4 L50,285.6 L60,284.7 L70,283.6 L80,282.5 L90,281.2 L100,279.9 L110,278.4 L120,276.9 L130,275.3 L140,273.6 L150,271.9 L160,270.0 L170,268.1 L180,266.2 L190,264.2 L200,262.1 L210,260.1 L220,257.9 L230,255.8 L240,253.6 L250,251.5 L260,249.3 L270,247.1 L280,245.0 L290,242.8 L300,240.7 L310,238.6 L320,236.6 L330,234.5 L340,232.6 L350,230.7 L360,228.8 L370,227.0 L380,225.3 L390,223.7 L400,222.1 L410,220.6 L420,219.2 L430,218.0 L440,216.8 L450,215.7 L460,214.7 L470,213.9 L480,213.1 L490,212.5 L500,212.0 L510,211.6 L520,211.3 L530,211.1 L540,211.1 L550,211.2 L560,211.4 L570,211.7 L580,212.2 L590,212.7 L600,213.4 L610,214.2 L620,215.1 L630,216.1 L640,217.2 L650,218.5 L660,219.8 L670,221.2 L680,222.7 L690,224.3 L700,226.0 L710,227.7 L720,229.5 L730,231.4 L740,233.3 L750,235.3 L760,237.4 L770,239.4 L780,241.5 L790,243.7 L800,245.8 L810,248.0 L820,250.2 L830,252.3 L840,254.5 L850,256.6 L860,258.8 L870,260.9 L880,262.9 L890,265.0 L900,267.0 L910,268.9 L920,270.8 L930,272.6 L940,274.3 L950,276.0 L960,277.5 L970,279.0 L980,280.4 L990,281.7 L1000,282.9 L1010,284.0 L1020,285.0 L1030,285.9 L1040,286.7 L1050,287.4 L1060,287.9 L1070,288.3 L1080,288.6 L1090,288.8 L1100,288.9 L1110,288.8 L1120,288.7 L1130,288.4 L1140,288.0 L1150,287.4 L1160,286.8 L1170,286.0 L1180,285.1 L1190,284.1 L1200,283.0" fill="none" stroke="#1f2d63" stroke-width="1.5" opacity="0.09"/>
  <path d="M0,355.5 L10,357.2 L20,358.8 L30,360.3 L40,361.8 L50,363.3 L60,364.6 L70,365.9 L80,367.1 L90,368.2 L100,369.2 L110,370.1 L120,370.9 L130,371.6 L140,372.1 L150,372.6 L160,372.9 L170,373.1 L180,373.2 L190,373.1 L200,372.9 L210,372.6 L220,372.2 L230,371.6 L240,371.0 L250,370.2 L260,369.3 L270,368.3 L280,367.2 L290,366.0 L300,364.7 L310,363.4 L320,361.9 L330,360.4 L340,358.9 L350,357.3 L360,355.7 L370,354.0 L380,352.3 L390,350.6 L400,348.9 L410,347.2 L420,345.5 L430,343.8 L440,342.2 L450,340.6 L460,339.1 L470,337.6 L480,336.2 L490,334.9 L500,333.6 L510,332.5 L520,331.4 L530,330.4 L540,329.6 L550,328.8 L560,328.2 L570,327.7 L580,327.3 L590,327.0 L600,326.9 L610,326.9 L620,327.0 L630,327.2 L640,327.5 L650,328.0 L660,328.6 L670,329.3 L680,330.1 L690,331.1 L700,332.1 L710,333.2 L720,334.5 L730,335.8 L740,337.1 L750,338.6 L760,340.1 L770,341.7 L780,343.3 L790,344.9 L800,346.6 L810,348.3 L820,350.0 L830,351.7 L840,353.4 L850,355.1 L860,356.7 L870,358.4 L880,359.9 L890,361.4 L900,362.9 L910,364.3 L920,365.6 L930,366.8 L940,367.9 L950,369.0 L960,369.9 L970,370.7 L980,371.4 L990,372.0 L1000,372.5 L1010,372.8 L1020,373.0 L1030,373.1 L1040,373.1 L1050,373.0 L1060,372.7 L1070,372.3 L1080,371.8 L1090,371.1 L1100,370.4 L1110,369.5 L1120,368.6 L1130,367.5 L1140,366.3 L1150,365.1 L1160,363.7 L1170,362.3 L1180,360.9 L1190,359.3 L1200,357.7" fill="none" stroke="#1f2d63" stroke-width="1.5" opacity="0.12"/>
  <path d="M0,401.0 L10,400.6 L20,400.4 L30,400.5 L40,400.9 L50,401.6 L60,402.5 L70,403.7 L80,405.2 L90,406.9 L100,408.9 L110,411.1 L120,413.5 L130,416.1 L140,418.9 L150,421.9 L160,425.1 L170,428.4 L180,431.8 L190,435.3 L200,438.9 L210,442.6 L220,446.3 L230,450.0 L240,453.7 L250,457.4 L260,461.1 L270,464.7 L280,468.2 L290,471.6 L300,474.9 L310,478.1 L320,481.1 L330,483.9 L340,486.5 L350,488.9 L360,491.1 L370,493.1 L380,494.8 L390,496.3 L400,497.5 L410,498.4 L420,499.1 L430,499.5 L440,499.6 L450,499.4 L460,499.0 L470,498.2 L480,497.2 L490,496.0 L500,494.4 L510,492.7 L520,490.6 L530,488.4 L540,485.9 L550,483.2 L560,480.4 L570,477.4 L580,474.2 L590,470.8 L600,467.4 L610,463.9 L620,460.2 L630,456.6 L640,452.8 L650,449.1 L660,445.4 L670,441.7 L680,438.0 L690,434.5 L700,431.0 L710,427.6 L720,424.3 L730,421.2 L740,418.2 L750,415.5 L760,412.9 L770,410.5 L780,408.4 L790,406.5 L800,404.8 L810,403.4 L820,402.2 L830,401.4 L840,400.8 L850,400.5 L860,400.4 L870,400.7 L880,401.2 L890,402.0 L900,403.0 L910,404.4 L920,406.0 L930,407.8 L940,409.9 L950,412.2 L960,414.7 L970,417.4 L980,420.3 L990,423.4 L1000,426.6 L1010,430.0 L1020,433.4 L1030,437.0 L1040,440.6 L1050,444.3 L1060,448.0 L1070,451.8 L1080,455.5 L1090,459.2 L1100,462.8 L1110,466.4 L1120,469.9 L1130,473.2 L1140,476.4 L1150,479.5 L1160,482.4 L1170,485.2 L1180,487.7 L1190,490.0 L1200,492.1" fill="none" stroke="#c9a24b" stroke-width="1.5" opacity="0.15"/>
  <path d="M0,526.9 L10,525.4 L20,523.9 L30,522.4 L40,521.1 L50,519.8 L60,518.5 L70,517.4 L80,516.3 L90,515.3 L100,514.3 L110,513.5 L120,512.7 L130,512.0 L140,511.4 L150,510.9 L160,510.5 L170,510.1 L180,509.9 L190,509.7 L200,509.7 L210,509.7 L220,509.8 L230,510.0 L240,510.4 L250,510.7 L260,511.2 L270,511.8 L280,512.5 L290,513.2 L300,514.0 L310,515.0 L320,515.9 L330,517.0 L340,518.2 L350,519.4 L360,520.7 L370,522.0 L380,523.4 L390,524.9 L400,526.4 L410,528.0 L420,529.7 L430,531.3 L440,533.1 L450,534.8 L460,536.6 L470,538.5 L480,540.3 L490,542.2 L500,544.1 L510,546.0 L520,547.9 L530,549.8 L540,551.8 L550,553.7 L560,555.6 L570,557.5 L580,559.4 L590,561.2 L600,563.1 L610,564.9 L620,566.6 L630,568.4 L640,570.1 L650,571.7 L660,573.3 L670,574.8 L680,576.3 L690,577.8 L700,579.1 L710,580.4 L720,581.6 L730,582.8 L740,583.9 L750,584.9 L760,585.8 L770,586.7 L780,587.4 L790,588.1 L800,588.7 L810,589.2 L820,589.6 L830,589.9 L840,590.1 L850,590.3 L860,590.3 L870,590.3 L880,590.1 L890,589.9 L900,589.6 L910,589.2 L920,588.7 L930,588.1 L940,587.4 L950,586.7 L960,585.8 L970,584.9 L980,583.9 L990,582.8 L1000,581.7 L1010,580.5 L1020,579.2 L1030,577.8 L1040,576.4 L1050,574.9 L1060,573.3 L1070,571.8 L1080,570.1 L1090,568.4 L1100,566.7 L1110,564.9 L1120,563.1 L1130,561.3 L1140,559.4 L1150,557.5 L1160,555.6 L1170,553.7 L1180,551.8 L1190,549.9 L1200,548.0" fill="none" stroke="#1f2d63" stroke-width="1.5" opacity="0.18"/>
  <circle cx="1066" cy="620" r="148" fill="#c9a24b" opacity="0.03"/>
  <circle cx="887" cy="286" r="77" fill="#c9a24b" opacity="0.03"/>
  <circle cx="1198" cy="268" r="125" fill="#c9a24b" opacity="0.03"/>
  <circle cx="253" cy="458" r="110" fill="#c9a24b" opacity="0.03"/>
  <circle cx="966" cy="369" r="129" fill="#c9a24b" opacity="0.03"/>
  <rect x="60" y="285" width="1080" height="143" rx="8" fill="black" opacity="0.35"/>
  <rect x="560" y="286" width="80" height="3" rx="1.5" fill="#c9a24b" opacity="0.7"/>
  <text x="600" y="296" text-anchor="middle" font-family="'Segoe UI', 'Helvetica Neue', Arial, sans-serif" font-weight="700" font-size="64" fill="#f2dd95" letter-spacing="-0.5">Magnifica Humanitas</text>
  <rect x="560" y="326" width="80" height="3" rx="1.5" fill="#c9a24b" opacity="0.7"/>
  <text x="600" y="606" text-anchor="middle" font-family="'Segoe UI', 'Helvetica Neue', Arial, sans-serif" font-weight="400" font-size="14" fill="#f2dd95" opacity="0.4" letter-spacing="2">mattjones.technology</text>
</svg>