<svg xmlns="http://www.w3.org/2000/svg" viewBox="0 0 1200 630" width="1200" height="630">
  <defs>
    <linearGradient id="bg" x1="0" y1="0" x2="0.5" y2="1">
      <stop offset="0%" stop-color="#1a0a10"/>
      <stop offset="100%" stop-color="#3d0a1a"/>
    </linearGradient>
  </defs>
  <rect width="1200" height="630" fill="url(#bg)"/>
  <line x1="-500" y1="0" x2="-185.0" y2="630" stroke="#6b1434" stroke-width="1" opacity="0.10"/>
  <line x1="-500" y1="0" x2="-815.0" y2="630" stroke="#6b1434" stroke-width="1" opacity="0.10"/>
  <line x1="-450" y1="0" x2="-135.0" y2="630" stroke="#6b1434" stroke-width="1" opacity="0.08"/>
  <line x1="-450" y1="0" x2="-765.0" y2="630" stroke="#6b1434" stroke-width="1" opacity="0.08"/>
  <line x1="-400" y1="0" x2="-85.0" y2="630" stroke="#6b1434" stroke-width="1" opacity="0.10"/>
  <line x1="-400" y1="0" x2="-715.0" y2="630" stroke="#6b1434" stroke-width="1" opacity="0.10"/>
  <line x1="-350" y1="0" x2="-35.0" y2="630" stroke="#6b1434" stroke-width="1" opacity="0.05"/>
  <line x1="-350" y1="0" x2="-665.0" y2="630" stroke="#6b1434" stroke-width="1" opacity="0.05"/>
  <line x1="-300" y1="0" x2="15.0" y2="630" stroke="#6b1434" stroke-width="1" opacity="0.07"/>
  <line x1="-300" y1="0" x2="-615.0" y2="630" stroke="#6b1434" stroke-width="1" opacity="0.07"/>
  <line x1="-250" y1="0" x2="65.0" y2="630" stroke="#6b1434" stroke-width="1" opacity="0.08"/>
  <line x1="-250" y1="0" x2="-565.0" y2="630" stroke="#6b1434" stroke-width="1" opacity="0.08"/>
  <line x1="-200" y1="0" x2="115.0" y2="630" stroke="#6b1434" stroke-width="1" opacity="0.11"/>
  <line x1="-200" y1="0" x2="-515.0" y2="630" stroke="#6b1434" stroke-width="1" opacity="0.11"/>
  <line x1="-150" y1="0" x2="165.0" y2="630" stroke="#6b1434" stroke-width="1" opacity="0.10"/>
  <line x1="-150" y1="0" x2="-465.0" y2="630" stroke="#6b1434" stroke-width="1" opacity="0.10"/>
  <line x1="-100" y1="0" x2="215.0" y2="630" stroke="#6b1434" stroke-width="1" opacity="0.05"/>
  <line x1="-100" y1="0" x2="-415.0" y2="630" stroke="#6b1434" stroke-width="1" opacity="0.05"/>
  <line x1="-50" y1="0" x2="265.0" y2="630" stroke="#6b1434" stroke-width="1" opacity="0.11"/>
  <line x1="-50" y1="0" x2="-365.0" y2="630" stroke="#6b1434" stroke-width="1" opacity="0.11"/>
  <line x1="0" y1="0" x2="315.0" y2="630" stroke="#6b1434" stroke-width="1" opacity="0.08"/>
  <line x1="0" y1="0" x2="-315.0" y2="630" stroke="#6b1434" stroke-width="1" opacity="0.08"/>
  <line x1="50" y1="0" x2="365.0" y2="630" stroke="#6b1434" stroke-width="1" opacity="0.09"/>
  <line x1="50" y1="0" x2="-265.0" y2="630" stroke="#6b1434" stroke-width="1" opacity="0.09"/>
  <line x1="100" y1="0" x2="415.0" y2="630" stroke="#6b1434" stroke-width="1" opacity="0.08"/>
  <line x1="100" y1="0" x2="-215.0" y2="630" stroke="#6b1434" stroke-width="1" opacity="0.08"/>
  <line x1="150" y1="0" x2="465.0" y2="630" stroke="#6b1434" stroke-width="1" opacity="0.07"/>
  <line x1="150" y1="0" x2="-165.0" y2="630" stroke="#6b1434" stroke-width="1" opacity="0.07"/>
  <line x1="200" y1="0" x2="515.0" y2="630" stroke="#6b1434" stroke-width="1" opacity="0.06"/>
  <line x1="200" y1="0" x2="-115.0" y2="630" stroke="#6b1434" stroke-width="1" opacity="0.06"/>
  <line x1="250" y1="0" x2="565.0" y2="630" stroke="#6b1434" stroke-width="1" opacity="0.07"/>
  <line x1="250" y1="0" x2="-65.0" y2="630" stroke="#6b1434" stroke-width="1" opacity="0.07"/>
  <line x1="300" y1="0" x2="615.0" y2="630" stroke="#6b1434" stroke-width="1" opacity="0.05"/>
  <line x1="300" y1="0" x2="-15.0" y2="630" stroke="#6b1434" stroke-width="1" opacity="0.05"/>
  <line x1="350" y1="0" x2="665.0" y2="630" stroke="#6b1434" stroke-width="1" opacity="0.07"/>
  <line x1="350" y1="0" x2="35.0" y2="630" stroke="#6b1434" stroke-width="1" opacity="0.07"/>
  <line x1="400" y1="0" x2="715.0" y2="630" stroke="#6b1434" stroke-width="1" opacity="0.08"/>
  <line x1="400" y1="0" x2="85.0" y2="630" stroke="#6b1434" stroke-width="1" opacity="0.08"/>
  <line x1="450" y1="0" x2="765.0" y2="630" stroke="#6b1434" stroke-width="1" opacity="0.10"/>
  <line x1="450" y1="0" x2="135.0" y2="630" stroke="#6b1434" stroke-width="1" opacity="0.10"/>
  <line x1="500" y1="0" x2="815.0" y2="630" stroke="#6b1434" stroke-width="1" opacity="0.09"/>
  <line x1="500" y1="0" x2="185.0" y2="630" stroke="#6b1434" stroke-width="1" opacity="0.09"/>
  <line x1="550" y1="0" x2="865.0" y2="630" stroke="#6b1434" stroke-width="1" opacity="0.06"/>
  <line x1="550" y1="0" x2="235.0" y2="630" stroke="#6b1434" stroke-width="1" opacity="0.06"/>
  <line x1="600" y1="0" x2="915.0" y2="630" stroke="#6b1434" stroke-width="1" opacity="0.08"/>
  <line x1="600" y1="0" x2="285.0" y2="630" stroke="#6b1434" stroke-width="1" opacity="0.08"/>
  <line x1="650" y1="0" x2="965.0" y2="630" stroke="#6b1434" stroke-width="1" opacity="0.09"/>
  <line x1="650" y1="0" x2="335.0" y2="630" stroke="#6b1434" stroke-width="1" opacity="0.09"/>
  <line x1="700" y1="0" x2="1015.0" y2="630" stroke="#6b1434" stroke-width="1" opacity="0.08"/>
  <line x1="700" y1="0" x2="385.0" y2="630" stroke="#6b1434" stroke-width="1" opacity="0.08"/>
  <line x1="750" y1="0" x2="1065.0" y2="630" stroke="#6b1434" stroke-width="1" opacity="0.12"/>
  <line x1="750" y1="0" x2="435.0" y2="630" stroke="#6b1434" stroke-width="1" opacity="0.12"/>
  <line x1="800" y1="0" x2="1115.0" y2="630" stroke="#6b1434" stroke-width="1" opacity="0.07"/>
  <line x1="800" y1="0" x2="485.0" y2="630" stroke="#6b1434" stroke-width="1" opacity="0.07"/>
  <line x1="850" y1="0" x2="1165.0" y2="630" stroke="#6b1434" stroke-width="1" opacity="0.05"/>
  <line x1="850" y1="0" x2="535.0" y2="630" stroke="#6b1434" stroke-width="1" opacity="0.05"/>
  <line x1="900" y1="0" x2="1215.0" y2="630" stroke="#6b1434" stroke-width="1" opacity="0.04"/>
  <line x1="900" y1="0" x2="585.0" y2="630" stroke="#6b1434" stroke-width="1" opacity="0.04"/>
  <line x1="950" y1="0" x2="1265.0" y2="630" stroke="#6b1434" stroke-width="1" opacity="0.08"/>
  <line x1="950" y1="0" x2="635.0" y2="630" stroke="#6b1434" stroke-width="1" opacity="0.08"/>
  <line x1="1000" y1="0" x2="1315.0" y2="630" stroke="#6b1434" stroke-width="1" opacity="0.09"/>
  <line x1="1000" y1="0" x2="685.0" y2="630" stroke="#6b1434" stroke-width="1" opacity="0.09"/>
  <line x1="1050" y1="0" x2="1365.0" y2="630" stroke="#6b1434" stroke-width="1" opacity="0.10"/>
  <line x1="1050" y1="0" x2="735.0" y2="630" stroke="#6b1434" stroke-width="1" opacity="0.10"/>
  <line x1="1100" y1="0" x2="1415.0" y2="630" stroke="#6b1434" stroke-width="1" opacity="0.12"/>
  <line x1="1100" y1="0" x2="785.0" y2="630" stroke="#6b1434" stroke-width="1" opacity="0.12"/>
  <line x1="1150" y1="0" x2="1465.0" y2="630" stroke="#6b1434" stroke-width="1" opacity="0.11"/>
  <line x1="1150" y1="0" x2="835.0" y2="630" stroke="#6b1434" stroke-width="1" opacity="0.11"/>
  <line x1="1200" y1="0" x2="1515.0" y2="630" stroke="#6b1434" stroke-width="1" opacity="0.06"/>
  <line x1="1200" y1="0" x2="885.0" y2="630" stroke="#6b1434" stroke-width="1" opacity="0.06"/>
  <line x1="1250" y1="0" x2="1565.0" y2="630" stroke="#6b1434" stroke-width="1" opacity="0.04"/>
  <line x1="1250" y1="0" x2="935.0" y2="630" stroke="#6b1434" stroke-width="1" opacity="0.04"/>
  <line x1="1300" y1="0" x2="1615.0" y2="630" stroke="#6b1434" stroke-width="1" opacity="0.08"/>
  <line x1="1300" y1="0" x2="985.0" y2="630" stroke="#6b1434" stroke-width="1" opacity="0.08"/>
  <line x1="1350" y1="0" x2="1665.0" y2="630" stroke="#6b1434" stroke-width="1" opacity="0.12"/>
  <line x1="1350" y1="0" x2="1035.0" y2="630" stroke="#6b1434" stroke-width="1" opacity="0.12"/>
  <line x1="1400" y1="0" x2="1715.0" y2="630" stroke="#6b1434" stroke-width="1" opacity="0.11"/>
  <line x1="1400" y1="0" x2="1085.0" y2="630" stroke="#6b1434" stroke-width="1" opacity="0.11"/>
  <line x1="1450" y1="0" x2="1765.0" y2="630" stroke="#6b1434" stroke-width="1" opacity="0.06"/>
  <line x1="1450" y1="0" x2="1135.0" y2="630" stroke="#6b1434" stroke-width="1" opacity="0.06"/>
  <rect x="633" y="98" width="74" height="53" fill="none" stroke="#ffc857" stroke-width="1.5" opacity="0.14" rx="2"/>
  <rect x="493" y="317" width="55" height="73" fill="none" stroke="#ffc857" stroke-width="1.5" opacity="0.13" rx="2"/>
  <rect x="852" y="129" width="47" height="67" fill="none" stroke="#ffc857" stroke-width="1.5" opacity="0.19" rx="2"/>
  <rect x="243" y="169" width="38" height="33" fill="none" stroke="#ffc857" stroke-width="1.5" opacity="0.16" rx="2"/>
  <rect x="991" y="527" width="37" height="76" fill="none" stroke="#ffc857" stroke-width="1.5" opacity="0.16" rx="2"/>
  <rect x="1041" y="85" width="39" height="64" fill="none" stroke="#ffc857" stroke-width="1.5" opacity="0.09" rx="2"/>
  <circle cx="108" cy="510" r="3" fill="#ffc857" opacity="0.2"/>
  <circle cx="817" cy="611" r="3" fill="#ffc857" opacity="0.2"/>
  <circle cx="287" cy="452" r="3" fill="#ffc857" opacity="0.2"/>
  <circle cx="205" cy="153" r="3" fill="#ffc857" opacity="0.2"/>
  <circle cx="489" cy="184" r="3" fill="#ffc857" opacity="0.2"/>
  <circle cx="609" cy="40" r="3" fill="#ffc857" opacity="0.2"/>
  <circle cx="133" cy="132" r="3" fill="#ffc857" opacity="0.2"/>
  <circle cx="110" cy="63" r="3" fill="#ffc857" opacity="0.2"/>
  <circle cx="920" cy="16" r="3" fill="#ffc857" opacity="0.2"/>
  <circle cx="770" cy="531" r="3" fill="#ffc857" opacity="0.2"/>
  <circle cx="976" cy="173" r="3" fill="#ffc857" opacity="0.2"/>
  <circle cx="269" cy="237" r="3" fill="#ffc857" opacity="0.2"/>
  <rect x="60" y="249" width="1080" height="206" rx="8" fill="black" opacity="0.35"/>
  <rect x="560" y="250" width="80" height="3" rx="1.5" fill="#ffc857" opacity="0.7"/>
  <text x="600" y="262" text-anchor="middle" font-family="'Segoe UI', 'Helvetica Neue', Arial, sans-serif" font-weight="700" font-size="56" fill="#f5e6d8" letter-spacing="-0.5">Subsidiarity in Enterprise</text>
  <text x="600" y="335" text-anchor="middle" font-family="'Segoe UI', 'Helvetica Neue', Arial, sans-serif" font-weight="700" font-size="56" fill="#f5e6d8" letter-spacing="-0.5">Architecture</text>
  <rect x="560" y="365" width="80" height="3" rx="1.5" fill="#ffc857" opacity="0.7"/>
  <text x="600" y="606" text-anchor="middle" font-family="'Segoe UI', 'Helvetica Neue', Arial, sans-serif" font-weight="400" font-size="14" fill="#f5e6d8" opacity="0.4" letter-spacing="2">mattjones.technology</text>
</svg>