<svg xmlns="http://www.w3.org/2000/svg" viewBox="0 0 1200 630" width="1200" height="630">
  <defs>
    <linearGradient id="bg" x1="0" y1="0" x2="1" y2="0.8">
      <stop offset="0%" stop-color="#141e30"/>
      <stop offset="100%" stop-color="#243b55"/>
    </linearGradient>
  </defs>
  <rect width="1200" height="630" fill="url(#bg)"/>
  <line x1="506" y1="135" x2="520" y2="287" stroke="#e8b84b" stroke-width="1" opacity="0.059"/>
  <line x1="506" y1="135" x2="340" y2="281" stroke="#e8b84b" stroke-width="1" opacity="0.032"/>
  <line x1="506" y1="135" x2="478" y2="250" stroke="#e8b84b" stroke-width="1" opacity="0.073"/>
  <line x1="506" y1="135" x2="581" y2="328" stroke="#e8b84b" stroke-width="1" opacity="0.037"/>
  <line x1="506" y1="135" x2="626" y2="245" stroke="#e8b84b" stroke-width="1" opacity="0.055"/>
  <line x1="506" y1="135" x2="678" y2="158" stroke="#e8b84b" stroke-width="1" opacity="0.051"/>
  <line x1="779" y1="520" x2="732" y2="523" stroke="#e8b84b" stroke-width="1" opacity="0.101"/>
  <line x1="779" y1="520" x2="874" y2="579" stroke="#e8b84b" stroke-width="1" opacity="0.075"/>
  <line x1="779" y1="520" x2="589" y2="386" stroke="#e8b84b" stroke-width="1" opacity="0.027"/>
  <line x1="779" y1="520" x2="754" y2="407" stroke="#e8b84b" stroke-width="1" opacity="0.074"/>
  <line x1="252" y1="517" x2="79" y2="337" stroke="#e8b84b" stroke-width="1" opacity="0.020"/>
  <line x1="252" y1="517" x2="251" y2="362" stroke="#e8b84b" stroke-width="1" opacity="0.058"/>
  <line x1="144" y1="129" x2="56" y2="298" stroke="#e8b84b" stroke-width="1" opacity="0.044"/>
  <line x1="144" y1="129" x2="88" y2="97" stroke="#e8b84b" stroke-width="1" opacity="0.094"/>
  <line x1="144" y1="129" x2="340" y2="281" stroke="#e8b84b" stroke-width="1" opacity="0.021"/>
  <line x1="144" y1="129" x2="157" y2="72" stroke="#e8b84b" stroke-width="1" opacity="0.097"/>
  <line x1="144" y1="129" x2="79" y2="337" stroke="#e8b84b" stroke-width="1" opacity="0.033"/>
  <line x1="144" y1="129" x2="107" y2="48" stroke="#e8b84b" stroke-width="1" opacity="0.084"/>
  <line x1="732" y1="523" x2="874" y2="579" stroke="#e8b84b" stroke-width="1" opacity="0.059"/>
  <line x1="732" y1="523" x2="520" y2="558" stroke="#e8b84b" stroke-width="1" opacity="0.034"/>
  <line x1="732" y1="523" x2="581" y2="328" stroke="#e8b84b" stroke-width="1" opacity="0.021"/>
  <line x1="732" y1="523" x2="535" y2="447" stroke="#e8b84b" stroke-width="1" opacity="0.036"/>
  <line x1="732" y1="523" x2="589" y2="386" stroke="#e8b84b" stroke-width="1" opacity="0.041"/>
  <line x1="732" y1="523" x2="754" y2="407" stroke="#e8b84b" stroke-width="1" opacity="0.073"/>
  <line x1="1071" y1="295" x2="984" y2="260" stroke="#e8b84b" stroke-width="1" opacity="0.082"/>
  <line x1="56" y1="298" x2="88" y2="97" stroke="#e8b84b" stroke-width="1" opacity="0.039"/>
  <line x1="56" y1="298" x2="157" y2="72" stroke="#e8b84b" stroke-width="1" opacity="0.021"/>
  <line x1="56" y1="298" x2="79" y2="337" stroke="#e8b84b" stroke-width="1" opacity="0.102"/>
  <line x1="56" y1="298" x2="251" y2="362" stroke="#e8b84b" stroke-width="1" opacity="0.038"/>
  <line x1="874" y1="579" x2="754" y2="407" stroke="#e8b84b" stroke-width="1" opacity="0.036"/>
  <line x1="520" y1="287" x2="340" y2="281" stroke="#e8b84b" stroke-width="1" opacity="0.048"/>
  <line x1="520" y1="287" x2="478" y2="250" stroke="#e8b84b" stroke-width="1" opacity="0.098"/>
  <line x1="520" y1="287" x2="581" y2="328" stroke="#e8b84b" stroke-width="1" opacity="0.091"/>
  <line x1="520" y1="287" x2="626" y2="245" stroke="#e8b84b" stroke-width="1" opacity="0.074"/>
  <line x1="520" y1="287" x2="535" y2="447" stroke="#e8b84b" stroke-width="1" opacity="0.056"/>
  <line x1="520" y1="287" x2="678" y2="158" stroke="#e8b84b" stroke-width="1" opacity="0.038"/>
  <line x1="520" y1="287" x2="589" y2="386" stroke="#e8b84b" stroke-width="1" opacity="0.072"/>
  <line x1="88" y1="97" x2="157" y2="72" stroke="#e8b84b" stroke-width="1" opacity="0.091"/>
  <line x1="88" y1="97" x2="79" y2="337" stroke="#e8b84b" stroke-width="1" opacity="0.024"/>
  <line x1="88" y1="97" x2="107" y2="48" stroke="#e8b84b" stroke-width="1" opacity="0.099"/>
  <line x1="340" y1="281" x2="478" y2="250" stroke="#e8b84b" stroke-width="1" opacity="0.063"/>
  <line x1="340" y1="281" x2="581" y2="328" stroke="#e8b84b" stroke-width="1" opacity="0.022"/>
  <line x1="340" y1="281" x2="251" y2="362" stroke="#e8b84b" stroke-width="1" opacity="0.072"/>
  <line x1="478" y1="250" x2="581" y2="328" stroke="#e8b84b" stroke-width="1" opacity="0.068"/>
  <line x1="478" y1="250" x2="626" y2="245" stroke="#e8b84b" stroke-width="1" opacity="0.061"/>
  <line x1="478" y1="250" x2="535" y2="447" stroke="#e8b84b" stroke-width="1" opacity="0.038"/>
  <line x1="478" y1="250" x2="678" y2="158" stroke="#e8b84b" stroke-width="1" opacity="0.032"/>
  <line x1="478" y1="250" x2="589" y2="386" stroke="#e8b84b" stroke-width="1" opacity="0.050"/>
  <line x1="157" y1="72" x2="107" y2="48" stroke="#e8b84b" stroke-width="1" opacity="0.098"/>
  <line x1="520" y1="558" x2="581" y2="328" stroke="#e8b84b" stroke-width="1" opacity="0.025"/>
  <line x1="520" y1="558" x2="535" y2="447" stroke="#e8b84b" stroke-width="1" opacity="0.075"/>
  <line x1="520" y1="558" x2="589" y2="386" stroke="#e8b84b" stroke-width="1" opacity="0.046"/>
  <line x1="581" y1="328" x2="626" y2="245" stroke="#e8b84b" stroke-width="1" opacity="0.082"/>
  <line x1="581" y1="328" x2="535" y2="447" stroke="#e8b84b" stroke-width="1" opacity="0.069"/>
  <line x1="581" y1="328" x2="678" y2="158" stroke="#e8b84b" stroke-width="1" opacity="0.042"/>
  <line x1="581" y1="328" x2="589" y2="386" stroke="#e8b84b" stroke-width="1" opacity="0.097"/>
  <line x1="581" y1="328" x2="754" y2="407" stroke="#e8b84b" stroke-width="1" opacity="0.044"/>
  <line x1="626" y1="245" x2="778" y2="103" stroke="#e8b84b" stroke-width="1" opacity="0.037"/>
  <line x1="626" y1="245" x2="535" y2="447" stroke="#e8b84b" stroke-width="1" opacity="0.031"/>
  <line x1="626" y1="245" x2="678" y2="158" stroke="#e8b84b" stroke-width="1" opacity="0.079"/>
  <line x1="626" y1="245" x2="589" y2="386" stroke="#e8b84b" stroke-width="1" opacity="0.062"/>
  <line x1="626" y1="245" x2="754" y2="407" stroke="#e8b84b" stroke-width="1" opacity="0.037"/>
  <line x1="778" y1="103" x2="678" y2="158" stroke="#e8b84b" stroke-width="1" opacity="0.074"/>
  <line x1="535" y1="447" x2="589" y2="386" stroke="#e8b84b" stroke-width="1" opacity="0.087"/>
  <line x1="535" y1="447" x2="754" y2="407" stroke="#e8b84b" stroke-width="1" opacity="0.031"/>
  <line x1="678" y1="158" x2="589" y2="386" stroke="#e8b84b" stroke-width="1" opacity="0.022"/>
  <line x1="79" y1="337" x2="251" y2="362" stroke="#e8b84b" stroke-width="1" opacity="0.050"/>
  <line x1="589" y1="386" x2="754" y2="407" stroke="#e8b84b" stroke-width="1" opacity="0.053"/>
  <circle cx="506" cy="135" r="5.9" fill="#e8b84b" opacity="0.50"/>
  <circle cx="779" cy="520" r="3.3" fill="#e8b84b" opacity="0.30"/>
  <circle cx="252" cy="517" r="2.4" fill="#e8b84b" opacity="0.34"/>
  <circle cx="144" cy="129" r="4.2" fill="#e8b84b" opacity="0.42"/>
  <circle cx="732" cy="523" r="4.8" fill="#e8b84b" opacity="0.50"/>
  <circle cx="1071" cy="295" r="3.2" fill="#e8b84b" opacity="0.47"/>
  <circle cx="56" cy="298" r="3.0" fill="#e8b84b" opacity="0.37"/>
  <circle cx="984" cy="260" r="4.5" fill="#e8b84b" opacity="0.21"/>
  <circle cx="874" cy="579" r="5.2" fill="#e8b84b" opacity="0.23"/>
  <circle cx="520" cy="287" r="5.2" fill="#e8b84b" opacity="0.45"/>
  <circle cx="88" cy="97" r="3.1" fill="#e8b84b" opacity="0.15"/>
  <circle cx="340" cy="281" r="4.3" fill="#e8b84b" opacity="0.44"/>
  <circle cx="478" cy="250" r="4.6" fill="#e8b84b" opacity="0.46"/>
  <circle cx="157" cy="72" r="2.1" fill="#e8b84b" opacity="0.37"/>
  <circle cx="520" cy="558" r="4.0" fill="#e8b84b" opacity="0.28"/>
  <circle cx="581" cy="328" r="5.5" fill="#e8b84b" opacity="0.34"/>
  <circle cx="626" cy="245" r="4.4" fill="#e8b84b" opacity="0.44"/>
  <circle cx="778" cy="103" r="5.6" fill="#e8b84b" opacity="0.39"/>
  <circle cx="535" cy="447" r="5.2" fill="#e8b84b" opacity="0.29"/>
  <circle cx="678" cy="158" r="3.2" fill="#e8b84b" opacity="0.22"/>
  <circle cx="79" cy="337" r="3.4" fill="#e8b84b" opacity="0.47"/>
  <circle cx="107" cy="48" r="5.7" fill="#e8b84b" opacity="0.17"/>
  <circle cx="251" cy="362" r="4.5" fill="#e8b84b" opacity="0.44"/>
  <circle cx="589" cy="386" r="5.2" fill="#e8b84b" opacity="0.44"/>
  <circle cx="754" cy="407" r="5.3" fill="#e8b84b" opacity="0.24"/>
  <rect x="60" y="249" width="1080" height="206" rx="8" fill="black" opacity="0.35"/>
  <rect x="560" y="250" width="80" height="3" rx="1.5" fill="#e8b84b" opacity="0.7"/>
  <text x="600" y="262" text-anchor="middle" font-family="'Segoe UI', 'Helvetica Neue', Arial, sans-serif" font-weight="700" font-size="56" fill="#f0f0f0" letter-spacing="-0.5">Taming My Gmail Inbox with</text>
  <text x="600" y="335" text-anchor="middle" font-family="'Segoe UI', 'Helvetica Neue', Arial, sans-serif" font-weight="700" font-size="56" fill="#f0f0f0" letter-spacing="-0.5">Claude</text>
  <rect x="560" y="365" width="80" height="3" rx="1.5" fill="#e8b84b" opacity="0.7"/>
  <text x="600" y="606" text-anchor="middle" font-family="'Segoe UI', 'Helvetica Neue', Arial, sans-serif" font-weight="400" font-size="14" fill="#f0f0f0" opacity="0.4" letter-spacing="2">mattjones.technology</text>
</svg>